<?xml version="1.0" encoding="UTF-8" standalone="no"?>
<!-- Created with Inkscape (http://www.inkscape.org/) -->

<svg
   xmlns:dc="http://purl.org/dc/elements/1.1/"
   xmlns:cc="http://creativecommons.org/ns#"
   xmlns:rdf="http://www.w3.org/1999/02/22-rdf-syntax-ns#"
   xmlns:svg="http://www.w3.org/2000/svg"
   xmlns="http://www.w3.org/2000/svg"
   xmlns:sodipodi="http://sodipodi.sourceforge.net/DTD/sodipodi-0.dtd"
   xmlns:inkscape="http://www.inkscape.org/namespaces/inkscape"
   id="svg2"
   version="1.1"
   inkscape:version="0.48.4 r9939"
   width="481.6"
   height="187.25"
   xml:space="preserve"
   sodipodi:docname="Powered by Fate Final Light BG.eps"><metadata
     id="metadata8"><rdf:RDF><cc:Work
         rdf:about=""><dc:format>image/svg+xml</dc:format><dc:type
           rdf:resource="http://purl.org/dc/dcmitype/StillImage" /><dc:title></dc:title></cc:Work></rdf:RDF></metadata><defs
     id="defs6" /><sodipodi:namedview
     pagecolor="#ffffff"
     bordercolor="#666666"
     borderopacity="1"
     objecttolerance="10"
     gridtolerance="10"
     guidetolerance="10"
     inkscape:pageopacity="0"
     inkscape:pageshadow="2"
     inkscape:window-width="640"
     inkscape:window-height="480"
     id="namedview4"
     showgrid="false"
     inkscape:zoom="0.74958471"
     inkscape:cx="240.8"
     inkscape:cy="93.625"
     inkscape:window-x="65"
     inkscape:window-y="24"
     inkscape:window-maximized="0"
     inkscape:current-layer="g10" /><g
     id="g10"
     inkscape:groupmode="layer"
     inkscape:label="ink_ext_XXXXXX"
     transform="matrix(1.25,0,0,-1.25,0,187.25)"><g
       id="g12"
       transform="scale(0.1,0.1)"><path
         d="m 351.23,17.8398 0,325.2692 -321.23,0 0,278.528 321.23,0 0,410.503 922.08,0 -126.93,-304.081 -442.767,0 0,-106.422 398.347,0 -116.261,-278.528 -282.086,0 0,-325.2692 -352.383,0"
         style="fill:#1c1a18;fill-opacity:1;fill-rule:nonzero;stroke:none"
         id="path14" /><path
         d="m 1288.32,1042.14 -947.09,0 0,-410.503 -321.23,0 0,-298.528 321.23,0 0,-325.26916 372.383,0 0,325.26916 278.75,0 5.133,12.301 107.914,258.524 11.56,27.703 -403.357,0 0,86.422 439.437,0 5.13,12.296 118.58,284.085 11.56,27.7 0,0 z m -30.02,-20 -118.58,-284.081 -446.107,0 0,-126.422 393.337,0 -107.911,-258.528 -285.426,0 0,-325.2692 -332.383,0 0,325.2692 -321.23,0 0,258.528 321.23,0 0,410.503 897.07,0"
         style="fill:#1c1a18;fill-opacity:1;fill-rule:nonzero;stroke:none"
         id="path16" /><path
         d="m 331.23,37.8398 0,325.2692 -321.23,0 0,278.528 321.23,0 0,410.503 922.08,0 -126.93,-304.081 -442.767,0 0,-106.422 398.347,0 -116.261,-278.528 -282.086,0 0,-325.2692 -352.383,0"
         style="fill:#376cbe;fill-opacity:1;fill-rule:nonzero;stroke:none"
         id="path18" /><path
         d="m 1268.32,1062.14 -947.09,0 0,-410.503 -321.23,0 0,-298.528 321.23,0 0,-325.2692 372.383,0 0,325.2692 278.75,0 5.133,12.301 107.914,258.524 11.56,27.703 -403.357,0 0,86.422 439.437,0 5.13,12.296 118.58,284.085 11.56,27.7 0,0 z m -30.02,-20 -118.58,-284.081 -446.107,0 0,-126.422 393.337,0 -107.911,-258.528 -285.426,0 0,-325.2692 -332.383,0 0,325.2692 -321.23,0 0,258.528 321.23,0 0,410.503 897.07,0"
         style="fill:#ffffff;fill-opacity:1;fill-rule:nonzero;stroke:none"
         id="path20" /><path
         d="m 3815.54,979.809 0,16.742 -3.3,-5.016 -11.82,0 -3.1,4.75 0,-16.476 -27.48,0 0,45.201 -8.38,0 0,-45.201 -27.47,0 0,45.201 -16.83,0 0,27.13 76.08,0 13.23,-20.32 13.11,20.32 23.27,0 0,-72.331 -27.31,0"
         style="fill:#376cbe;fill-opacity:1;fill-rule:nonzero;stroke:none"
         id="path22" /><path
         d="m 3852.85,1062.14 -38.71,0 -5.91,-9.16 -1.8,-2.78 -1.85,2.85 -5.92,9.09 -91.5,0 0,-47.13 16.83,0 0,-45.201 128.86,0 0,92.331 z m -84.57,-20 0,-7.13 -16.82,0 0,-45.201 -7.47,0 0,45.201 -16.83,0 0,7.13 41.12,0 m 64.57,0 0,-52.331 -7.31,0 0,40.101 -18.69,-28.37 -1.02,0 -18.51,28.37 0,-40.101 -7.48,0 0,52.331 7.98,0 18.69,-28.71 18.52,28.71 7.82,0"
         style="fill:#ffffff;fill-opacity:1;fill-rule:nonzero;stroke:none"
         id="path24" /><path
         d="m 2830.21,17.8398 0,713.0622 -291.26,0 0,-713.0622 -352.38,0 0,713.0622 -217.96,0 -126.06,301.238 1855.65,0 0,-301.238 -521.3,0 0,-72.336 485.79,0 0,-260.066 -485.79,0 0,-87.941 528.4,0 0,-292.7192 -875.09,0"
         style="fill:#1c1a18;fill-opacity:1;fill-rule:nonzero;stroke:none"
         id="path26" /><path
         d="m 3708.2,1042.14 -1880.67,0 11.6,-27.72 117.69,-281.24 5.14,-12.278 214.61,0 0,-713.06216 372.38,0 0,713.06216 271.26,0 0,-713.06216 895.09,0 0,312.71916 -528.4,0 0,67.941 485.79,0 0,280.066 -485.79,0 0,52.336 521.3,0 0,321.238 z m -20,-20 0,-281.238 -521.3,0 0,-92.336 485.79,0 0,-240.066 -485.79,0 0,-107.941 528.4,0 0,-272.7192 -855.09,0 0,713.0622 -311.26,0 0,-713.0622 -332.38,0 0,713.0622 -221.3,0 -117.69,281.238 1830.62,0"
         style="fill:#1c1a18;fill-opacity:1;fill-rule:nonzero;stroke:none"
         id="path28" /><path
         d="m 2810.21,37.8398 0,713.0622 -291.26,0 0,-713.0622 -352.38,0 0,713.0622 -217.96,0 -126.06,301.238 1855.65,0 0,-301.238 -521.3,0 0,-72.336 485.79,0 0,-260.066 -485.79,0 0,-87.941 528.4,0 0,-292.7192 -875.09,0"
         style="fill:#376cbe;fill-opacity:1;fill-rule:nonzero;stroke:none"
         id="path30" /><path
         d="m 3688.2,1062.14 -1880.67,0 11.6,-27.72 117.69,-281.24 5.14,-12.278 214.61,0 0,-713.0622 372.38,0 0,713.0622 271.26,0 0,-713.0622 895.09,0 0,312.7192 -528.4,0 0,67.941 485.79,0 0,280.066 -485.79,0 0,52.336 521.3,0 0,321.238 z m -20,-20 0,-281.238 -521.3,0 0,-92.336 485.79,0 0,-240.066 -485.79,0 0,-107.941 528.4,0 0,-272.7192 -855.09,0 0,713.0622 -311.26,0 0,-713.0622 -332.38,0 0,713.0622 -221.3,0 -117.69,281.238 1830.62,0"
         style="fill:#ffffff;fill-opacity:1;fill-rule:nonzero;stroke:none"
         id="path32" /><path
         d="m 1635.46,406.699 -76.46,203.094 -76.46,-203.094 152.92,0 z M 2143.3,18.0703 c -124.91,27.5899 -253.23,46.3711 -381.41,55.8086 l -6.26,0.4609 -30.15,76.5702 -334.31,0 -29.49,-76.9998 -6.31,-0.4688 C 1229.52,63.8594 1103.36,45.2383 980.398,18.0703 L 961.598,13.9219 1561.88,1452 1735.85,1032.63 2162.12,13.9102 2143.3,18.0703"
         style="fill:#1c1a18;fill-opacity:1;fill-rule:nonzero;stroke:none"
         id="path34" /><path
         d="m 1497,416.699 62,164.711 62.01,-164.711 -124.01,0 0,0 z m 64.9,1061.321 -18.51,-44.35 L 959.785,35.5391 944.949,0 982.559,8.30859 C 1105.06,35.3789 1230.75,53.9297 1356.13,63.4609 l 12.62,0.961 4.54,11.8398 24.76,64.6483 320.62,0 25.35,-64.3787 4.6,-11.6993 12.54,-0.9218 C 1888.86,54.5 2016.7,35.7891 2141.14,8.30859 L 2178.78,0 2163.9,35.5586 1745.07,1036.51 l -164.75,397.12 -18.42,44.39 0,0 z m -93.8,-1081.321 181.81,0 L 1559,638.176 1468.1,396.699 M 1561.85,1425.96 1726.62,1028.79 2145.45,27.8398 C 2020.85,55.3594 1893.04,74.25 1762.63,83.8516 l -30.34,77.0584 -348,0 -29.68,-77.4998 c -128.18,-9.75 -253.83,-28.5 -376.368,-55.5704 L 1561.85,1425.96"
         style="fill:#1c1a18;fill-opacity:1;fill-rule:nonzero;stroke:none"
         id="path36" /><path
         d="m 1615.46,426.699 -76.46,203.094 -76.46,-203.094 152.92,0 z M 2123.3,38.0703 c -124.91,27.5899 -253.23,46.3711 -381.41,55.8086 l -6.26,0.4609 -30.15,76.5702 -334.31,0 -29.49,-76.9998 -6.31,-0.4688 C 1209.52,83.8594 1083.36,65.2383 960.398,38.0703 L 941.598,33.9219 1541.88,1472 1715.85,1052.63 2142.12,33.9102 2123.3,38.0703"
         style="fill:#376cbe;fill-opacity:1;fill-rule:nonzero;stroke:none"
         id="path38" /><path
         d="m 1477,436.699 62,164.711 62.01,-164.711 -124.01,0 0,0 z m 64.9,1061.321 -18.51,-44.35 L 939.785,55.5391 924.949,20 l 37.61,8.3086 c 122.501,27.0703 248.191,45.6211 373.571,55.1523 l 12.62,0.961 4.54,11.8398 24.76,64.6483 320.62,0 25.35,-64.3787 4.6,-11.6993 12.54,-0.9218 C 1868.86,74.5 1996.7,55.7891 2121.14,28.3086 L 2158.78,20 2143.9,55.5586 1725.07,1056.51 l -164.75,397.12 -18.42,44.39 0,0 z m -93.8,-1081.321 181.81,0 L 1539,658.176 1448.1,416.699 M 1541.85,1445.96 1706.62,1048.79 2125.45,47.8398 C 2000.85,75.3594 1873.04,94.25 1742.63,103.852 l -30.34,77.058 -348,0 -29.68,-77.5 C 1206.43,93.6602 1080.78,74.9102 958.242,47.8398 L 1541.85,1445.96"
         style="fill:#ffffff;fill-opacity:1;fill-rule:nonzero;stroke:none"
         id="path40" /><path
         d="m 1938.46,1236.63 c 9.3,0 14.01,2.85 14.01,8.48 0,3.24 0,8.97 -13.76,8.97 l -5.37,0 0,-17.45 5.12,0 z m -81.28,-105.68 0,188.01 85.61,0 c 53.3,0 85.13,-26.08 85.13,-69.76 0,-45 -33.08,-72.65 -86.33,-72.65 l -8.25,0 0,-45.6 -76.16,0"
         style="fill:#1c1a18;fill-opacity:1;fill-rule:nonzero;stroke:none"
         id="path42" /><path
         d="m 1942.79,1328.96 -95.61,0 0,-208.01 96.16,0 0,45.61 c 57.51,0.64 94.58,32.74 94.58,82.16 0,49.67 -36.46,80.24 -95.13,80.24 l 0,0 z m -19.45,-102.33 15.12,0 c 14.41,0 24.01,6.48 24.01,18.48 l 0,0.48 c 0,12.25 -8.88,18.49 -23.76,18.49 l -15.37,0 0,-37.45 m 19.45,82.33 c 44.64,0 75.13,-19.92 75.13,-59.76 l 0,-0.48 c 0,-40.57 -30.97,-62.17 -76.33,-62.17 l -18.25,0 0,-45.6 -56.16,0 0,168.01 75.61,0"
         style="fill:#1c1a18;fill-opacity:1;fill-rule:nonzero;stroke:none"
         id="path44" /><path
         d="m 2135.5,1252.88 c -16.29,0 -24.8,-13.81 -24.8,-27.44 0,-14.36 8.68,-28.41 25.28,-28.41 16.29,0 24.81,13.8 24.81,27.44 0,14.35 -8.69,28.41 -25.29,28.41 z m 0,-125.54 c -56.88,0 -101.44,42.67 -101.44,97.13 0,55.21 44.76,98.08 101.92,98.08 56.9,0 101.46,-42.66 101.46,-97.11 0,-55.22 -44.78,-98.1 -101.94,-98.1"
         style="fill:#1c1a18;fill-opacity:1;fill-rule:nonzero;stroke:none"
         id="path46" /><path
         d="m 2135.98,1207.03 c -10.5,0 -15.28,9.29 -15.28,17.92 0,6.52 3.09,17.93 14.8,17.93 10.5,0 15.29,-9.29 15.29,-17.93 0,-6.51 -3.1,-17.92 -14.81,-17.92 l 0,0 z m 0,125.52 c -62.76,0 -111.92,-47.26 -111.92,-107.6 0,-60.55 48.95,-107.61 111.44,-107.61 62.77,0 111.94,47.27 111.94,107.61 0,60.55 -48.96,107.6 -111.46,107.6 l 0,0 z m 0,-145.52 c 21.37,0 34.81,17.76 34.81,37.44 l 0,0.48 c 0,19.92 -13.69,37.93 -35.29,37.93 -21.35,0 -34.8,-17.77 -34.8,-37.44 l 0,-0.49 c 0,-19.92 13.68,-37.92 35.28,-37.92 m 0,125.52 c 51.85,0 91.46,-38.39 91.46,-87.11 l 0,-0.49 c 0,-48.72 -40.09,-87.61 -91.94,-87.61 -51.84,0 -91.44,38.41 -91.44,87.13 l 0,0.48 c 0,48.73 40.08,87.6 91.92,87.6"
         style="fill:#1c1a18;fill-opacity:1;fill-rule:nonzero;stroke:none"
         id="path48" /><path
         d="m 2397.49,1129.74 -22.47,63.53 -22.45,-63.53 -63.3,0 -61.45,189.22 80.05,0 16.88,-57.31 19.32,57.79 62.88,0 19.32,-57.79 16.89,57.31 79.08,0 -61.46,-189.22 -63.29,0"
         style="fill:#1c1a18;fill-opacity:1;fill-rule:nonzero;stroke:none"
         id="path50" /><path
         d="m 2414.16,1329.44 -77.3,0 -4.56,-13.66 -6.95,-20.78 -5.77,19.61 -4.23,14.35 -101.29,0 8.49,-26.17 54.96,-169.22 4.5,-13.83 77.63,0 4.72,13.34 10.66,30.18 10.68,-30.18 4.72,-13.34 77.62,0 4.49,13.83 54.97,169.22 8.51,26.17 -100.33,0 -4.22,-14.34 -5.79,-19.63 -6.95,20.79 -4.56,13.66 0,0 z m -14.41,-20 27.12,-81.13 23.77,80.65 57.84,0 -54.97,-169.22 -48.95,0 -29.54,83.53 -29.52,-83.53 -48.96,0 -54.96,169.22 58.81,0 23.76,-80.65 27.11,81.13 48.49,0"
         style="fill:#1c1a18;fill-opacity:1;fill-rule:nonzero;stroke:none"
         id="path52" /><path
         d="m 2526.07,1130.95 0,188.01 163.29,0 0,-66.08 -6,0 0,-55.85 7.2,0 0,-66.08 -164.49,0"
         style="fill:#1c1a18;fill-opacity:1;fill-rule:nonzero;stroke:none"
         id="path54" /><path
         d="m 2699.36,1328.96 -183.29,0 0,-208.01 184.49,0 0,86.08 -7.2,0 0,35.85 6,0 0,86.08 z m -20,-20 0,-46.08 -88.09,0 0,-17.04 82.09,0 0,-40.57 -82.09,0 0,-18.24 89.29,0 0,-46.08 -144.49,0 0,168.01 143.29,0"
         style="fill:#1c1a18;fill-opacity:1;fill-rule:nonzero;stroke:none"
         id="path56" /><path
         d="m 2794.08,1239.03 c 7.69,0 11.6,2.13 11.6,6.32 0,2.3 0,6.56 -11.37,6.56 l -14.48,0 0,-12.88 14.25,0 z m 14.06,-108.08 -28.31,42.89 0,-42.89 -76.16,0 0,188.01 92.09,0 c 30.13,0 52.87,-7.44 67.56,-22.14 12.3,-12.3 18.29,-27.65 18.29,-46.91 0,-23.44 -10.12,-42.54 -28.76,-55.11 l 43.72,-63.85 -88.43,0"
         style="fill:#1c1a18;fill-opacity:1;fill-rule:nonzero;stroke:none"
         id="path58" /><path
         d="m 2795.76,1328.96 -102.09,0 0,-208.01 96.16,0 0,19.58 7,-10.6 5.93,-8.98 112.78,0 -21.43,31.29 -27.64,40.37 c 16.36,14.18 25.14,33.75 25.14,56.82 0,22.53 -6.95,40.19 -21.22,54.46 -16.64,16.64 -41.74,25.07 -74.63,25.07 l 0,0 z m -25.93,-99.93 24.25,0 c 13.43,0 21.6,6.01 21.6,16.32 l 0,0.49 c 0,10.8 -8.4,16.07 -21.37,16.07 l -24.48,0 0,-32.88 m 25.93,79.93 c 29.76,0 48.72,-7.44 60.49,-19.21 10.07,-10.07 15.36,-22.55 15.36,-39.84 l 0,-0.48 c 0,-24.48 -12.73,-41.52 -33.13,-51.36 l 39.12,-57.12 -64.08,0 -31.69,48 -12,0 0,-48 -56.16,0 0,168.01 82.09,0"
         style="fill:#1c1a18;fill-opacity:1;fill-rule:nonzero;stroke:none"
         id="path60" /><path
         d="m 2893.27,1130.95 0,188.01 163.29,0 0,-66.08 -6,0 0,-55.85 7.2,0 0,-66.08 -164.49,0"
         style="fill:#1c1a18;fill-opacity:1;fill-rule:nonzero;stroke:none"
         id="path62" /><path
         d="m 3066.56,1328.96 -183.29,0 0,-208.01 184.49,0 0,86.08 -7.2,0 0,35.85 6,0 0,86.08 z m -20,-20 0,-46.08 -88.09,0 0,-17.04 82.09,0 0,-40.57 -82.09,0 0,-18.24 89.29,0 0,-46.08 -144.49,0 0,168.01 143.29,0"
         style="fill:#1c1a18;fill-opacity:1;fill-rule:nonzero;stroke:none"
         id="path64" /><path
         d="m 3147.03,1199.91 c 31.61,0.24 31.61,18.07 31.61,24.8 0,7.22 0,25.05 -31.61,25.29 l 0,-50.09 z m -76.17,-68.96 0,188.01 74.33,0 c 68.94,0 110.09,-34.6 110.09,-92.57 0,-59.05 -42.92,-95.44 -112.01,-95.44 l -72.41,0"
         style="fill:#1c1a18;fill-opacity:1;fill-rule:nonzero;stroke:none"
         id="path66" /><path
         d="m 3157.03,1210.81 0,28.3 c 11.61,-2.36 11.61,-8.89 11.61,-13.92 0,-5.41 0,-12.01 -11.61,-14.38 l 0,0 z m -11.84,118.15 -84.33,0 0,-208.01 82.41,0 c 75.26,0 122.01,40.22 122.01,104.97 0,63.74 -46.02,103.04 -120.09,103.04 l 0,0 z m -8.16,-139.05 9.36,0 c 25.69,0 42.25,10.55 42.25,34.8 l 0,0.48 c 0,24.24 -16.56,34.81 -42.25,34.81 l -9.36,0 0,-70.09 m 8.16,119.05 c 66.73,0 100.09,-32.89 100.09,-82.57 l 0,-0.47 c 0,-49.69 -34.08,-84.97 -102.01,-84.97 l -62.41,0 0,168.01 64.33,0"
         style="fill:#1c1a18;fill-opacity:1;fill-rule:nonzero;stroke:none"
         id="path68" /><path
         d="m 3426.48,1252.96 c 6.23,0 7.93,1.35 7.94,1.36 l -0.2,1.01 c -0.01,-0.01 -0.01,-0.01 -0.02,-0.01 -0.21,0 -2.19,1.15 -7.96,1.15 l -14.24,0 0,-3.51 14.48,0 z m 3.6,-59.53 c 5.97,0 8.22,1.54 8.45,1.92 l -0.02,1.22 c -0.22,0.36 -2.41,1.82 -8.19,1.82 l -18.32,0 0,-4.96 18.08,0 z m -92.81,-62.48 0,188.01 104.09,0 c 25.09,0 42.52,-5.73 54.84,-18.05 8.67,-8.67 13.25,-20.16 13.25,-33.24 0,-15.71 -6.03,-28.6 -17.33,-37.81 15.18,-9.42 22.85,-23.44 22.85,-41.88 0,-34.83 -29.27,-57.03 -74.57,-57.03 l -103.13,0"
         style="fill:#1c1a18;fill-opacity:1;fill-rule:nonzero;stroke:none"
         id="path70" /><path
         d="m 3441.36,1328.96 -114.09,0 0,-208.01 113.13,0 c 62.42,0 84.57,35.85 84.57,66.56 0,13.89 -3.71,30.35 -17.78,43.43 7.98,9.98 12.26,22.31 12.26,36.26 0,16.26 -5.6,30.19 -16.18,40.78 -14.32,14.31 -33.99,20.98 -61.91,20.98 l 0,0 z m -39.36,-145.53 28.08,0 c 12.24,0 18.48,5.03 18.48,12.24 l 0,0.48 c 0,7.2 -6,12.24 -18.24,12.24 l -28.32,0 0,-24.96 m 0,59.53 24.48,0 c 12,0 17.76,4.08 17.76,11.51 l 0,0.49 c 0,7.44 -6,11.51 -18,11.51 l -24.24,0 0,-23.51 m 39.36,66 c 23.28,0 37.92,-5.28 47.77,-15.12 5.99,-6 10.32,-14.64 10.32,-26.17 l 0,-0.47 c 0,-19.93 -12,-32.16 -30.01,-38.4 21.6,-6.25 35.53,-17.77 35.53,-40.82 l 0,-0.47 c 0,-26.88 -22.08,-46.56 -64.57,-46.56 l -93.13,0 0,168.01 94.09,0"
         style="fill:#1c1a18;fill-opacity:1;fill-rule:nonzero;stroke:none"
         id="path72" /><path
         d="m 3567.92,1130.95 0,66.81 -70.79,121.2 86.37,0 22.78,-43.66 22.97,43.66 85.68,0 -70.84,-120.49 0,-67.52 -76.17,0"
         style="fill:#1c1a18;fill-opacity:1;fill-rule:nonzero;stroke:none"
         id="path74" /><path
         d="m 3732.41,1328.96 -109.2,0 -5.62,-10.69 -11.28,-21.42 -11.14,21.36 -5.61,10.75 -109.85,0 17.57,-30.08 60.64,-103.83 0,-74.1 96.17,0 0,74.8 60.59,103.07 17.73,30.14 0,0 z m -34.96,-20 -63.36,-107.77 0,-60.24 -56.17,0 0,59.51 -63.36,108.5 62.88,0 28.81,-55.2 29.04,55.2 62.16,0"
         style="fill:#1c1a18;fill-opacity:1;fill-rule:nonzero;stroke:none"
         id="path76" /><path
         d="m 1918.46,1256.63 c 9.3,0 14.01,2.85 14.01,8.48 0,3.24 0,8.97 -13.76,8.97 l -5.37,0 0,-17.45 5.12,0 z m -81.28,-105.68 0,188.01 85.61,0 c 53.3,0 85.13,-26.08 85.13,-69.76 0,-45 -33.08,-72.65 -86.33,-72.65 l -8.25,0 0,-45.6 -76.16,0"
         style="fill:#376cbe;fill-opacity:1;fill-rule:nonzero;stroke:none"
         id="path78" /><path
         d="m 1922.79,1348.96 -95.61,0 0,-208.01 96.16,0 0,45.61 c 57.51,0.64 94.58,32.74 94.58,82.16 0,49.67 -36.46,80.24 -95.13,80.24 l 0,0 z m -19.45,-102.33 15.12,0 c 14.41,0 24.01,6.48 24.01,18.48 l 0,0.48 c 0,12.25 -8.88,18.49 -23.76,18.49 l -15.37,0 0,-37.45 m 19.45,82.33 c 44.64,0 75.13,-19.92 75.13,-59.76 l 0,-0.48 c 0,-40.57 -30.97,-62.17 -76.33,-62.17 l -18.25,0 0,-45.6 -56.16,0 0,168.01 75.61,0"
         style="fill:#ffffff;fill-opacity:1;fill-rule:nonzero;stroke:none"
         id="path80" /><path
         d="m 2115.5,1272.88 c -16.29,0 -24.8,-13.81 -24.8,-27.44 0,-14.36 8.68,-28.41 25.28,-28.41 16.29,0 24.81,13.8 24.81,27.44 0,14.35 -8.69,28.41 -25.29,28.41 z m 0,-125.54 c -56.88,0 -101.44,42.67 -101.44,97.13 0,55.21 44.76,98.08 101.92,98.08 56.9,0 101.46,-42.66 101.46,-97.11 0,-55.22 -44.78,-98.1 -101.94,-98.1"
         style="fill:#376cbe;fill-opacity:1;fill-rule:nonzero;stroke:none"
         id="path82" /><path
         d="m 2115.98,1227.03 c -10.5,0 -15.28,9.29 -15.28,17.92 0,6.52 3.09,17.93 14.8,17.93 10.5,0 15.29,-9.29 15.29,-17.93 0,-6.51 -3.1,-17.92 -14.81,-17.92 l 0,0 z m 0,125.52 c -62.76,0 -111.92,-47.26 -111.92,-107.6 0,-60.55 48.95,-107.61 111.44,-107.61 62.77,0 111.94,47.27 111.94,107.61 0,60.55 -48.96,107.6 -111.46,107.6 l 0,0 z m 0,-145.52 c 21.37,0 34.81,17.76 34.81,37.44 l 0,0.48 c 0,19.92 -13.69,37.93 -35.29,37.93 -21.35,0 -34.8,-17.77 -34.8,-37.44 l 0,-0.49 c 0,-19.92 13.68,-37.92 35.28,-37.92 m 0,125.52 c 51.85,0 91.46,-38.39 91.46,-87.11 l 0,-0.49 c 0,-48.72 -40.09,-87.61 -91.94,-87.61 -51.84,0 -91.44,38.41 -91.44,87.13 l 0,0.48 c 0,48.73 40.08,87.6 91.92,87.6"
         style="fill:#ffffff;fill-opacity:1;fill-rule:nonzero;stroke:none"
         id="path84" /><path
         d="m 2377.49,1149.74 -22.47,63.53 -22.45,-63.53 -63.3,0 -61.45,189.22 80.05,0 16.88,-57.31 19.32,57.79 62.88,0 19.32,-57.79 16.89,57.31 79.08,0 -61.46,-189.22 -63.29,0"
         style="fill:#376cbe;fill-opacity:1;fill-rule:nonzero;stroke:none"
         id="path86" /><path
         d="m 2394.16,1349.44 -77.3,0 -4.56,-13.66 -6.95,-20.78 -5.77,19.61 -4.23,14.35 -101.29,0 8.49,-26.17 54.96,-169.22 4.5,-13.83 77.63,0 4.72,13.34 10.66,30.18 10.68,-30.18 4.72,-13.34 77.62,0 4.49,13.83 54.97,169.22 8.51,26.17 -100.33,0 -4.22,-14.34 -5.79,-19.63 -6.95,20.79 -4.56,13.66 0,0 z m -14.41,-20 27.12,-81.13 23.77,80.65 57.84,0 -54.97,-169.22 -48.95,0 -29.54,83.53 -29.52,-83.53 -48.96,0 -54.96,169.22 58.81,0 23.76,-80.65 27.11,81.13 48.49,0"
         style="fill:#ffffff;fill-opacity:1;fill-rule:nonzero;stroke:none"
         id="path88" /><path
         d="m 2506.07,1150.95 0,188.01 163.29,0 0,-66.08 -6,0 0,-55.85 7.2,0 0,-66.08 -164.49,0"
         style="fill:#376cbe;fill-opacity:1;fill-rule:nonzero;stroke:none"
         id="path90" /><path
         d="m 2679.36,1348.96 -183.29,0 0,-208.01 184.49,0 0,86.08 -7.2,0 0,35.85 6,0 0,86.08 z m -20,-20 0,-46.08 -88.09,0 0,-17.04 82.09,0 0,-40.57 -82.09,0 0,-18.24 89.29,0 0,-46.08 -144.49,0 0,168.01 143.29,0"
         style="fill:#ffffff;fill-opacity:1;fill-rule:nonzero;stroke:none"
         id="path92" /><path
         d="m 2774.08,1259.03 c 7.69,0 11.6,2.13 11.6,6.32 0,2.3 0,6.56 -11.37,6.56 l -14.48,0 0,-12.88 14.25,0 z m 14.06,-108.08 -28.31,42.89 0,-42.89 -76.16,0 0,188.01 92.09,0 c 30.13,0 52.87,-7.44 67.56,-22.14 12.3,-12.3 18.29,-27.65 18.29,-46.91 0,-23.44 -10.12,-42.54 -28.76,-55.11 l 43.72,-63.85 -88.43,0"
         style="fill:#376cbe;fill-opacity:1;fill-rule:nonzero;stroke:none"
         id="path94" /><path
         d="m 2775.76,1348.96 -102.09,0 0,-208.01 96.16,0 0,19.58 7,-10.6 5.93,-8.98 112.78,0 -21.43,31.29 -27.64,40.37 c 16.36,14.18 25.14,33.75 25.14,56.82 0,22.53 -6.95,40.19 -21.22,54.46 -16.64,16.64 -41.74,25.07 -74.63,25.07 l 0,0 z m -25.93,-99.93 24.25,0 c 13.43,0 21.6,6.01 21.6,16.32 l 0,0.49 c 0,10.8 -8.4,16.07 -21.37,16.07 l -24.48,0 0,-32.88 m 25.93,79.93 c 29.76,0 48.72,-7.44 60.49,-19.21 10.07,-10.07 15.36,-22.55 15.36,-39.84 l 0,-0.48 c 0,-24.48 -12.73,-41.52 -33.13,-51.36 l 39.12,-57.12 -64.08,0 -31.69,48 -12,0 0,-48 -56.16,0 0,168.01 82.09,0"
         style="fill:#ffffff;fill-opacity:1;fill-rule:nonzero;stroke:none"
         id="path96" /><path
         d="m 2873.27,1150.95 0,188.01 163.29,0 0,-66.08 -6,0 0,-55.85 7.2,0 0,-66.08 -164.49,0"
         style="fill:#376cbe;fill-opacity:1;fill-rule:nonzero;stroke:none"
         id="path98" /><path
         d="m 3046.56,1348.96 -183.29,0 0,-208.01 184.49,0 0,86.08 -7.2,0 0,35.85 6,0 0,86.08 z m -20,-20 0,-46.08 -88.09,0 0,-17.04 82.09,0 0,-40.57 -82.09,0 0,-18.24 89.29,0 0,-46.08 -144.49,0 0,168.01 143.29,0"
         style="fill:#ffffff;fill-opacity:1;fill-rule:nonzero;stroke:none"
         id="path100" /><path
         d="m 3127.03,1219.91 c 31.61,0.24 31.61,18.07 31.61,24.8 0,7.22 0,25.05 -31.61,25.29 l 0,-50.09 z m -76.17,-68.96 0,188.01 74.33,0 c 68.94,0 110.09,-34.6 110.09,-92.57 0,-59.05 -42.92,-95.44 -112.01,-95.44 l -72.41,0"
         style="fill:#376cbe;fill-opacity:1;fill-rule:nonzero;stroke:none"
         id="path102" /><path
         d="m 3137.03,1230.81 0,28.3 c 11.61,-2.36 11.61,-8.89 11.61,-13.92 0,-5.41 0,-12.01 -11.61,-14.38 l 0,0 z m -11.84,118.15 -84.33,0 0,-208.01 82.41,0 c 75.26,0 122.01,40.22 122.01,104.97 0,63.74 -46.02,103.04 -120.09,103.04 l 0,0 z m -8.16,-139.05 9.36,0 c 25.69,0 42.25,10.55 42.25,34.8 l 0,0.48 c 0,24.24 -16.56,34.81 -42.25,34.81 l -9.36,0 0,-70.09 m 8.16,119.05 c 66.73,0 100.09,-32.89 100.09,-82.57 l 0,-0.47 c 0,-49.69 -34.08,-84.97 -102.01,-84.97 l -62.41,0 0,168.01 64.33,0"
         style="fill:#ffffff;fill-opacity:1;fill-rule:nonzero;stroke:none"
         id="path104" /><path
         d="m 3406.48,1272.96 c 6.23,0 7.93,1.35 7.94,1.36 l -0.2,1.01 c -0.01,-0.01 -0.01,-0.01 -0.02,-0.01 -0.21,0 -2.19,1.15 -7.96,1.15 l -14.24,0 0,-3.51 14.48,0 z m 3.6,-59.53 c 5.97,0 8.22,1.54 8.45,1.92 l -0.02,1.22 c -0.22,0.36 -2.41,1.82 -8.19,1.82 l -18.32,0 0,-4.96 18.08,0 z m -92.81,-62.48 0,188.01 104.09,0 c 25.09,0 42.52,-5.73 54.84,-18.05 8.67,-8.67 13.25,-20.16 13.25,-33.24 0,-15.71 -6.03,-28.6 -17.33,-37.81 15.18,-9.42 22.85,-23.44 22.85,-41.88 0,-34.83 -29.27,-57.03 -74.57,-57.03 l -103.13,0"
         style="fill:#376cbe;fill-opacity:1;fill-rule:nonzero;stroke:none"
         id="path106" /><path
         d="m 3421.36,1348.96 -114.09,0 0,-208.01 113.13,0 c 62.42,0 84.57,35.85 84.57,66.56 0,13.89 -3.71,30.35 -17.78,43.43 7.98,9.98 12.26,22.31 12.26,36.26 0,16.26 -5.6,30.19 -16.18,40.78 -14.32,14.31 -33.99,20.98 -61.91,20.98 l 0,0 z m -39.36,-145.53 28.08,0 c 12.24,0 18.48,5.03 18.48,12.24 l 0,0.48 c 0,7.2 -6,12.24 -18.24,12.24 l -28.32,0 0,-24.96 m 0,59.53 24.48,0 c 12,0 17.76,4.08 17.76,11.51 l 0,0.49 c 0,7.44 -6,11.51 -18,11.51 l -24.24,0 0,-23.51 m 39.36,66 c 23.28,0 37.92,-5.28 47.77,-15.12 5.99,-6 10.32,-14.64 10.32,-26.17 l 0,-0.47 c 0,-19.93 -12,-32.16 -30.01,-38.4 21.6,-6.25 35.53,-17.77 35.53,-40.82 l 0,-0.47 c 0,-26.88 -22.08,-46.56 -64.57,-46.56 l -93.13,0 0,168.01 94.09,0"
         style="fill:#ffffff;fill-opacity:1;fill-rule:nonzero;stroke:none"
         id="path108" /><path
         d="m 3547.92,1150.95 0,66.81 -70.79,121.2 86.37,0 22.78,-43.66 22.97,43.66 85.68,0 -70.84,-120.49 0,-67.52 -76.17,0"
         style="fill:#376cbe;fill-opacity:1;fill-rule:nonzero;stroke:none"
         id="path110" /><path
         d="m 3712.41,1348.96 -109.2,0 -5.62,-10.69 -11.28,-21.42 -11.14,21.36 -5.61,10.75 -109.85,0 17.57,-30.08 60.64,-103.83 0,-74.1 96.17,0 0,74.8 60.59,103.07 17.73,30.14 0,0 z m -34.96,-20 -63.36,-107.77 0,-60.24 -56.17,0 0,59.51 -63.36,108.5 62.88,0 28.81,-55.2 29.04,55.2 62.16,0"
         style="fill:#ffffff;fill-opacity:1;fill-rule:nonzero;stroke:none"
         id="path112" /></g></g></svg>